<mxfile host="app.diagrams.net" modified="2024-05-02T08:34:57.352Z" agent="Mozilla/5.0 (Windows NT 10.0; Win64; x64; rv:125.0) Gecko/20100101 Firefox/125.0" etag="vrzHDH-vUMYcf027GUea" version="24.3.0" type="device">
  <diagram name="Page-1" id="2YBvvXClWsGukQMizWep">
    <mxGraphModel dx="1750" dy="943" grid="1" gridSize="10" guides="1" tooltips="1" connect="1" arrows="1" fold="1" page="1" pageScale="1" pageWidth="1200" pageHeight="1920" math="0" shadow="0">
      <root>
        <mxCell id="0" />
        <mxCell id="1" parent="0" />
        <mxCell id="aM9ryv3xv72pqoxQDRHE-1" value=": app" style="shape=umlLifeline;perimeter=lifelinePerimeter;whiteSpace=wrap;html=1;container=0;dropTarget=0;collapsible=0;recursiveResize=0;outlineConnect=0;portConstraint=eastwest;newEdgeStyle={&quot;edgeStyle&quot;:&quot;elbowEdgeStyle&quot;,&quot;elbow&quot;:&quot;vertical&quot;,&quot;curved&quot;:0,&quot;rounded&quot;:0};fillColor=#d5e8d4;strokeColor=#82b366;" parent="1" vertex="1">
          <mxGeometry x="140" y="40" width="100" height="1500" as="geometry" />
        </mxCell>
        <mxCell id="aM9ryv3xv72pqoxQDRHE-2" value="" style="html=1;points=[];perimeter=orthogonalPerimeter;outlineConnect=0;targetShapes=umlLifeline;portConstraint=eastwest;newEdgeStyle={&quot;edgeStyle&quot;:&quot;elbowEdgeStyle&quot;,&quot;elbow&quot;:&quot;vertical&quot;,&quot;curved&quot;:0,&quot;rounded&quot;:0};fillColor=#d5e8d4;strokeColor=#82b366;" parent="aM9ryv3xv72pqoxQDRHE-1" vertex="1">
          <mxGeometry x="45" y="70" width="10" height="1290" as="geometry" />
        </mxCell>
        <mxCell id="aM9ryv3xv72pqoxQDRHE-3" value="ouverture app" style="html=1;verticalAlign=bottom;startArrow=oval;endArrow=block;startSize=8;edgeStyle=elbowEdgeStyle;elbow=vertical;curved=0;rounded=0;" parent="aM9ryv3xv72pqoxQDRHE-1" target="aM9ryv3xv72pqoxQDRHE-2" edge="1">
          <mxGeometry relative="1" as="geometry">
            <mxPoint x="-90" y="70" as="sourcePoint" />
          </mxGeometry>
        </mxCell>
        <mxCell id="aM9ryv3xv72pqoxQDRHE-5" value=":vue add film" style="shape=umlLifeline;perimeter=lifelinePerimeter;whiteSpace=wrap;html=1;container=0;dropTarget=0;collapsible=0;recursiveResize=0;outlineConnect=0;portConstraint=eastwest;newEdgeStyle={&quot;edgeStyle&quot;:&quot;elbowEdgeStyle&quot;,&quot;elbow&quot;:&quot;vertical&quot;,&quot;curved&quot;:0,&quot;rounded&quot;:0};fillColor=#ffe6cc;strokeColor=#d79b00;" parent="1" vertex="1">
          <mxGeometry x="860" y="40" width="100" height="1500" as="geometry" />
        </mxCell>
        <mxCell id="aM9ryv3xv72pqoxQDRHE-7" value="demande affichage " style="html=1;verticalAlign=bottom;endArrow=block;edgeStyle=elbowEdgeStyle;elbow=vertical;curved=0;rounded=0;" parent="1" target="53H3iFj_lqqziJ8YQ38P-20" edge="1">
          <mxGeometry x="0.2432" relative="1" as="geometry">
            <mxPoint x="235" y="110" as="sourcePoint" />
            <Array as="points">
              <mxPoint x="190" y="110" />
            </Array>
            <mxPoint x="330" y="110" as="targetPoint" />
            <mxPoint as="offset" />
          </mxGeometry>
        </mxCell>
        <mxCell id="53H3iFj_lqqziJ8YQ38P-1" value="admin" style="shape=umlActor;verticalLabelPosition=bottom;verticalAlign=top;html=1;outlineConnect=0;fillColor=#f8cecc;strokeColor=#b85450;" vertex="1" parent="1">
          <mxGeometry x="30" y="20" width="30" height="60" as="geometry" />
        </mxCell>
        <mxCell id="53H3iFj_lqqziJ8YQ38P-2" value="" style="endArrow=none;dashed=1;html=1;dashPattern=1 3;strokeWidth=2;rounded=0;fillColor=#f8cecc;strokeColor=#b85450;" edge="1" parent="1" target="53H3iFj_lqqziJ8YQ38P-1">
          <mxGeometry width="50" height="50" relative="1" as="geometry">
            <mxPoint x="50" y="1540" as="sourcePoint" />
            <mxPoint x="450" y="270" as="targetPoint" />
          </mxGeometry>
        </mxCell>
        <mxCell id="53H3iFj_lqqziJ8YQ38P-5" value=":buisness" style="shape=umlLifeline;perimeter=lifelinePerimeter;whiteSpace=wrap;html=1;container=0;dropTarget=0;collapsible=0;recursiveResize=0;outlineConnect=0;portConstraint=eastwest;newEdgeStyle={&quot;edgeStyle&quot;:&quot;elbowEdgeStyle&quot;,&quot;elbow&quot;:&quot;vertical&quot;,&quot;curved&quot;:0,&quot;rounded&quot;:0};fillColor=#dae8fc;strokeColor=#6c8ebf;" vertex="1" parent="1">
          <mxGeometry x="1220" y="40" width="100" height="1500" as="geometry" />
        </mxCell>
        <mxCell id="53H3iFj_lqqziJ8YQ38P-6" value="" style="html=1;points=[];perimeter=orthogonalPerimeter;outlineConnect=0;targetShapes=umlLifeline;portConstraint=eastwest;newEdgeStyle={&quot;edgeStyle&quot;:&quot;elbowEdgeStyle&quot;,&quot;elbow&quot;:&quot;vertical&quot;,&quot;curved&quot;:0,&quot;rounded&quot;:0};fillColor=#dae8fc;strokeColor=#6c8ebf;" vertex="1" parent="53H3iFj_lqqziJ8YQ38P-5">
          <mxGeometry x="45" y="70" width="10" height="1290" as="geometry" />
        </mxCell>
        <mxCell id="aM9ryv3xv72pqoxQDRHE-8" value="return list cinema + list city" style="html=1;verticalAlign=bottom;endArrow=open;dashed=1;endSize=8;edgeStyle=elbowEdgeStyle;elbow=horizontal;curved=0;rounded=0;" parent="53H3iFj_lqqziJ8YQ38P-5" source="53H3iFj_lqqziJ8YQ38P-6" target="53H3iFj_lqqziJ8YQ38P-5" edge="1">
          <mxGeometry x="0.4881" relative="1" as="geometry">
            <mxPoint x="-440" y="110" as="targetPoint" />
            <Array as="points">
              <mxPoint x="230" y="110" />
            </Array>
            <mxPoint x="-320" y="110" as="sourcePoint" />
            <mxPoint as="offset" />
          </mxGeometry>
        </mxCell>
        <mxCell id="53H3iFj_lqqziJ8YQ38P-7" value=":repository" style="shape=umlLifeline;perimeter=lifelinePerimeter;whiteSpace=wrap;html=1;container=0;dropTarget=0;collapsible=0;recursiveResize=0;outlineConnect=0;portConstraint=eastwest;newEdgeStyle={&quot;edgeStyle&quot;:&quot;elbowEdgeStyle&quot;,&quot;elbow&quot;:&quot;vertical&quot;,&quot;curved&quot;:0,&quot;rounded&quot;:0};fillColor=#e1d5e7;strokeColor=#9673a6;" vertex="1" parent="1">
          <mxGeometry x="1400" y="40" width="100" height="1500" as="geometry" />
        </mxCell>
        <mxCell id="53H3iFj_lqqziJ8YQ38P-8" value="" style="html=1;points=[];perimeter=orthogonalPerimeter;outlineConnect=0;targetShapes=umlLifeline;portConstraint=eastwest;newEdgeStyle={&quot;edgeStyle&quot;:&quot;elbowEdgeStyle&quot;,&quot;elbow&quot;:&quot;vertical&quot;,&quot;curved&quot;:0,&quot;rounded&quot;:0};fillColor=#e1d5e7;strokeColor=#9673a6;" vertex="1" parent="53H3iFj_lqqziJ8YQ38P-7">
          <mxGeometry x="45" y="70" width="10" height="720" as="geometry" />
        </mxCell>
        <mxCell id="53H3iFj_lqqziJ8YQ38P-114" value="" style="html=1;points=[];perimeter=orthogonalPerimeter;outlineConnect=0;targetShapes=umlLifeline;portConstraint=eastwest;newEdgeStyle={&quot;edgeStyle&quot;:&quot;elbowEdgeStyle&quot;,&quot;elbow&quot;:&quot;vertical&quot;,&quot;curved&quot;:0,&quot;rounded&quot;:0};fillColor=#e1d5e7;strokeColor=#9673a6;" vertex="1" parent="53H3iFj_lqqziJ8YQ38P-7">
          <mxGeometry x="45" y="800" width="10" height="230" as="geometry" />
        </mxCell>
        <mxCell id="53H3iFj_lqqziJ8YQ38P-115" value="" style="html=1;points=[];perimeter=orthogonalPerimeter;outlineConnect=0;targetShapes=umlLifeline;portConstraint=eastwest;newEdgeStyle={&quot;edgeStyle&quot;:&quot;elbowEdgeStyle&quot;,&quot;elbow&quot;:&quot;vertical&quot;,&quot;curved&quot;:0,&quot;rounded&quot;:0};fillColor=#e1d5e7;strokeColor=#9673a6;" vertex="1" parent="53H3iFj_lqqziJ8YQ38P-7">
          <mxGeometry x="45" y="1040" width="10" height="240" as="geometry" />
        </mxCell>
        <mxCell id="53H3iFj_lqqziJ8YQ38P-9" value=":database" style="shape=umlLifeline;perimeter=lifelinePerimeter;whiteSpace=wrap;html=1;container=0;dropTarget=0;collapsible=0;recursiveResize=0;outlineConnect=0;portConstraint=eastwest;newEdgeStyle={&quot;edgeStyle&quot;:&quot;elbowEdgeStyle&quot;,&quot;elbow&quot;:&quot;vertical&quot;,&quot;curved&quot;:0,&quot;rounded&quot;:0};fillColor=#f5f5f5;fontColor=#333333;strokeColor=#666666;" vertex="1" parent="1">
          <mxGeometry x="1670" y="40" width="100" height="1500" as="geometry" />
        </mxCell>
        <mxCell id="53H3iFj_lqqziJ8YQ38P-10" value="" style="html=1;points=[];perimeter=orthogonalPerimeter;outlineConnect=0;targetShapes=umlLifeline;portConstraint=eastwest;newEdgeStyle={&quot;edgeStyle&quot;:&quot;elbowEdgeStyle&quot;,&quot;elbow&quot;:&quot;vertical&quot;,&quot;curved&quot;:0,&quot;rounded&quot;:0};fillColor=#f5f5f5;fontColor=#333333;strokeColor=#666666;" vertex="1" parent="53H3iFj_lqqziJ8YQ38P-9">
          <mxGeometry x="45" y="70" width="10" height="40" as="geometry" />
        </mxCell>
        <mxCell id="53H3iFj_lqqziJ8YQ38P-28" value="" style="html=1;points=[];perimeter=orthogonalPerimeter;outlineConnect=0;targetShapes=umlLifeline;portConstraint=eastwest;newEdgeStyle={&quot;edgeStyle&quot;:&quot;elbowEdgeStyle&quot;,&quot;elbow&quot;:&quot;vertical&quot;,&quot;curved&quot;:0,&quot;rounded&quot;:0};fillColor=#f5f5f5;fontColor=#333333;strokeColor=#666666;" vertex="1" parent="53H3iFj_lqqziJ8YQ38P-9">
          <mxGeometry x="45" y="200" width="10" height="20" as="geometry" />
        </mxCell>
        <mxCell id="53H3iFj_lqqziJ8YQ38P-38" value="" style="html=1;points=[];perimeter=orthogonalPerimeter;outlineConnect=0;targetShapes=umlLifeline;portConstraint=eastwest;newEdgeStyle={&quot;edgeStyle&quot;:&quot;elbowEdgeStyle&quot;,&quot;elbow&quot;:&quot;vertical&quot;,&quot;curved&quot;:0,&quot;rounded&quot;:0};fillColor=#f5f5f5;fontColor=#333333;strokeColor=#666666;" vertex="1" parent="53H3iFj_lqqziJ8YQ38P-9">
          <mxGeometry x="45" y="290" width="10" height="40" as="geometry" />
        </mxCell>
        <mxCell id="53H3iFj_lqqziJ8YQ38P-53" value="" style="html=1;points=[];perimeter=orthogonalPerimeter;outlineConnect=0;targetShapes=umlLifeline;portConstraint=eastwest;newEdgeStyle={&quot;edgeStyle&quot;:&quot;elbowEdgeStyle&quot;,&quot;elbow&quot;:&quot;vertical&quot;,&quot;curved&quot;:0,&quot;rounded&quot;:0};fillColor=#f5f5f5;fontColor=#333333;strokeColor=#666666;" vertex="1" parent="53H3iFj_lqqziJ8YQ38P-9">
          <mxGeometry x="45" y="640" width="10" height="20" as="geometry" />
        </mxCell>
        <mxCell id="53H3iFj_lqqziJ8YQ38P-85" value="" style="html=1;points=[];perimeter=orthogonalPerimeter;outlineConnect=0;targetShapes=umlLifeline;portConstraint=eastwest;newEdgeStyle={&quot;edgeStyle&quot;:&quot;elbowEdgeStyle&quot;,&quot;elbow&quot;:&quot;vertical&quot;,&quot;curved&quot;:0,&quot;rounded&quot;:0};fillColor=#f5f5f5;fontColor=#333333;strokeColor=#666666;" vertex="1" parent="53H3iFj_lqqziJ8YQ38P-9">
          <mxGeometry x="50" y="880" width="10" height="20" as="geometry" />
        </mxCell>
        <mxCell id="53H3iFj_lqqziJ8YQ38P-11" value="demande affichage " style="html=1;verticalAlign=bottom;endArrow=block;edgeStyle=elbowEdgeStyle;elbow=vertical;curved=0;rounded=0;" edge="1" parent="1">
          <mxGeometry x="0.2432" relative="1" as="geometry">
            <mxPoint x="380" y="110" as="sourcePoint" />
            <Array as="points" />
            <mxPoint x="1274.5" y="110.33333333333348" as="targetPoint" />
            <mxPoint as="offset" />
          </mxGeometry>
        </mxCell>
        <mxCell id="53H3iFj_lqqziJ8YQ38P-12" value="getCinemaPages() + getcity()" style="html=1;verticalAlign=bottom;endArrow=block;edgeStyle=elbowEdgeStyle;elbow=vertical;curved=0;rounded=0;entryX=0.5;entryY=0.1;entryDx=0;entryDy=0;entryPerimeter=0;exitX=0.6;exitY=0.1;exitDx=0;exitDy=0;exitPerimeter=0;" edge="1" parent="1">
          <mxGeometry x="-0.1245" relative="1" as="geometry">
            <mxPoint x="1280" y="110" as="sourcePoint" />
            <Array as="points" />
            <mxPoint x="1450" y="110" as="targetPoint" />
            <mxPoint as="offset" />
          </mxGeometry>
        </mxCell>
        <mxCell id="53H3iFj_lqqziJ8YQ38P-13" value="findByNameContain(&#39;&#39;) +findAllCity" style="html=1;verticalAlign=bottom;endArrow=block;edgeStyle=elbowEdgeStyle;elbow=vertical;curved=0;rounded=0;" edge="1" parent="1" target="53H3iFj_lqqziJ8YQ38P-9">
          <mxGeometry x="0.2432" relative="1" as="geometry">
            <mxPoint x="1450" y="110" as="sourcePoint" />
            <Array as="points">
              <mxPoint x="1660" y="110" />
            </Array>
            <mxPoint x="1050" y="110" as="targetPoint" />
            <mxPoint as="offset" />
          </mxGeometry>
        </mxCell>
        <mxCell id="53H3iFj_lqqziJ8YQ38P-16" value="return list cinema + list city" style="html=1;verticalAlign=bottom;endArrow=open;dashed=1;endSize=8;edgeStyle=elbowEdgeStyle;elbow=vertical;curved=0;rounded=0;" edge="1" parent="1">
          <mxGeometry relative="1" as="geometry">
            <mxPoint x="368.8333333333335" y="150" as="targetPoint" />
            <Array as="points">
              <mxPoint x="500" y="150" />
            </Array>
            <mxPoint x="1269.5" y="150" as="sourcePoint" />
          </mxGeometry>
        </mxCell>
        <mxCell id="53H3iFj_lqqziJ8YQ38P-19" value="affichagelist cinema + city" style="html=1;verticalAlign=bottom;endArrow=open;dashed=1;endSize=8;edgeStyle=elbowEdgeStyle;elbow=vertical;curved=0;rounded=0;" edge="1" parent="1" source="53H3iFj_lqqziJ8YQ38P-20">
          <mxGeometry relative="1" as="geometry">
            <mxPoint x="50" y="150" as="targetPoint" />
            <Array as="points">
              <mxPoint x="80" y="150" />
            </Array>
            <mxPoint x="180" y="150" as="sourcePoint" />
          </mxGeometry>
        </mxCell>
        <mxCell id="53H3iFj_lqqziJ8YQ38P-20" value=":vue index" style="shape=umlLifeline;perimeter=lifelinePerimeter;whiteSpace=wrap;html=1;container=0;dropTarget=0;collapsible=0;recursiveResize=0;outlineConnect=0;portConstraint=eastwest;newEdgeStyle={&quot;edgeStyle&quot;:&quot;elbowEdgeStyle&quot;,&quot;elbow&quot;:&quot;vertical&quot;,&quot;curved&quot;:0,&quot;rounded&quot;:0};fillColor=#ffe6cc;strokeColor=#d79b00;" vertex="1" parent="1">
          <mxGeometry x="320" y="40" width="100" height="1500" as="geometry" />
        </mxCell>
        <mxCell id="53H3iFj_lqqziJ8YQ38P-21" value="" style="html=1;points=[];perimeter=orthogonalPerimeter;outlineConnect=0;targetShapes=umlLifeline;portConstraint=eastwest;newEdgeStyle={&quot;edgeStyle&quot;:&quot;elbowEdgeStyle&quot;,&quot;elbow&quot;:&quot;vertical&quot;,&quot;curved&quot;:0,&quot;rounded&quot;:0};fillColor=#fff2cc;strokeColor=#d6b656;" vertex="1" parent="53H3iFj_lqqziJ8YQ38P-20">
          <mxGeometry x="45" y="70" width="10" height="220" as="geometry" />
        </mxCell>
        <mxCell id="53H3iFj_lqqziJ8YQ38P-54" value="" style="html=1;points=[];perimeter=orthogonalPerimeter;outlineConnect=0;targetShapes=umlLifeline;portConstraint=eastwest;newEdgeStyle={&quot;edgeStyle&quot;:&quot;elbowEdgeStyle&quot;,&quot;elbow&quot;:&quot;vertical&quot;,&quot;curved&quot;:0,&quot;rounded&quot;:0};fillColor=#fff2cc;strokeColor=#d6b656;" vertex="1" parent="53H3iFj_lqqziJ8YQ38P-20">
          <mxGeometry x="45" y="420" width="10" height="130" as="geometry" />
        </mxCell>
        <mxCell id="53H3iFj_lqqziJ8YQ38P-86" value="" style="html=1;points=[];perimeter=orthogonalPerimeter;outlineConnect=0;targetShapes=umlLifeline;portConstraint=eastwest;newEdgeStyle={&quot;edgeStyle&quot;:&quot;elbowEdgeStyle&quot;,&quot;elbow&quot;:&quot;vertical&quot;,&quot;curved&quot;:0,&quot;rounded&quot;:0};fillColor=#fff2cc;strokeColor=#d6b656;" vertex="1" parent="53H3iFj_lqqziJ8YQ38P-20">
          <mxGeometry x="45" y="920" width="10" height="120" as="geometry" />
        </mxCell>
        <mxCell id="53H3iFj_lqqziJ8YQ38P-111" value="" style="html=1;points=[];perimeter=orthogonalPerimeter;outlineConnect=0;targetShapes=umlLifeline;portConstraint=eastwest;newEdgeStyle={&quot;edgeStyle&quot;:&quot;elbowEdgeStyle&quot;,&quot;elbow&quot;:&quot;vertical&quot;,&quot;curved&quot;:0,&quot;rounded&quot;:0};fillColor=#fff2cc;strokeColor=#d6b656;" vertex="1" parent="53H3iFj_lqqziJ8YQ38P-20">
          <mxGeometry x="45" y="1280" width="10" height="80" as="geometry" />
        </mxCell>
        <mxCell id="53H3iFj_lqqziJ8YQ38P-22" value="return list cinema + list city" style="html=1;verticalAlign=bottom;endArrow=open;dashed=1;endSize=8;edgeStyle=elbowEdgeStyle;elbow=vertical;curved=0;rounded=0;" edge="1" parent="1" source="53H3iFj_lqqziJ8YQ38P-9" target="53H3iFj_lqqziJ8YQ38P-7">
          <mxGeometry relative="1" as="geometry">
            <mxPoint x="960" y="150" as="targetPoint" />
            <Array as="points">
              <mxPoint x="1660" y="150" />
            </Array>
            <mxPoint x="1080" y="150" as="sourcePoint" />
          </mxGeometry>
        </mxCell>
        <mxCell id="53H3iFj_lqqziJ8YQ38P-23" value="demande suppression cinema" style="html=1;verticalAlign=bottom;startArrow=oval;endArrow=block;startSize=8;edgeStyle=elbowEdgeStyle;elbow=vertical;curved=0;rounded=0;" edge="1" parent="1" target="53H3iFj_lqqziJ8YQ38P-20">
          <mxGeometry relative="1" as="geometry">
            <mxPoint x="50" y="240.12" as="sourcePoint" />
            <mxPoint x="185" y="240.12" as="targetPoint" />
          </mxGeometry>
        </mxCell>
        <mxCell id="53H3iFj_lqqziJ8YQ38P-26" value="demande suppression" style="html=1;verticalAlign=bottom;endArrow=block;edgeStyle=elbowEdgeStyle;elbow=vertical;curved=0;rounded=0;" edge="1" parent="1" target="53H3iFj_lqqziJ8YQ38P-5">
          <mxGeometry x="0.2432" relative="1" as="geometry">
            <mxPoint x="372.5" y="240.12" as="sourcePoint" />
            <Array as="points" />
            <mxPoint x="727.5" y="240.12" as="targetPoint" />
            <mxPoint as="offset" />
          </mxGeometry>
        </mxCell>
        <mxCell id="53H3iFj_lqqziJ8YQ38P-27" value="deleteCinema()" style="html=1;verticalAlign=bottom;endArrow=block;edgeStyle=elbowEdgeStyle;elbow=vertical;curved=0;rounded=0;entryX=0.5;entryY=0.1;entryDx=0;entryDy=0;entryPerimeter=0;" edge="1" parent="1">
          <mxGeometry x="0.2432" relative="1" as="geometry">
            <mxPoint x="1315" y="240" as="sourcePoint" />
            <Array as="points">
              <mxPoint x="1270" y="240" />
            </Array>
            <mxPoint x="1450" y="240" as="targetPoint" />
            <mxPoint as="offset" />
          </mxGeometry>
        </mxCell>
        <mxCell id="53H3iFj_lqqziJ8YQ38P-29" value="deleteById() , update bdd" style="html=1;verticalAlign=bottom;endArrow=block;edgeStyle=elbowEdgeStyle;elbow=vertical;curved=0;rounded=0;" edge="1" parent="1">
          <mxGeometry x="0.2432" relative="1" as="geometry">
            <mxPoint x="1505" y="240" as="sourcePoint" />
            <Array as="points">
              <mxPoint x="1460" y="240" />
            </Array>
            <mxPoint x="1720" y="240" as="targetPoint" />
            <mxPoint as="offset" />
          </mxGeometry>
        </mxCell>
        <mxCell id="53H3iFj_lqqziJ8YQ38P-35" value="demande mise a jour cinema" style="html=1;verticalAlign=bottom;startArrow=oval;endArrow=block;startSize=8;edgeStyle=elbowEdgeStyle;elbow=vertical;curved=0;rounded=0;" edge="1" parent="1">
          <mxGeometry relative="1" as="geometry">
            <mxPoint x="40" y="330.67" as="sourcePoint" />
            <mxPoint x="360" y="330.55" as="targetPoint" />
          </mxGeometry>
        </mxCell>
        <mxCell id="53H3iFj_lqqziJ8YQ38P-36" value="change windows" style="html=1;verticalAlign=bottom;endArrow=block;edgeStyle=elbowEdgeStyle;elbow=vertical;curved=0;rounded=0;" edge="1" parent="1" target="53H3iFj_lqqziJ8YQ38P-60">
          <mxGeometry x="0.2432" relative="1" as="geometry">
            <mxPoint x="372.5" y="330.1" as="sourcePoint" />
            <Array as="points" />
            <mxPoint x="530" y="340" as="targetPoint" />
            <mxPoint as="offset" />
          </mxGeometry>
        </mxCell>
        <mxCell id="53H3iFj_lqqziJ8YQ38P-37" value="getCinemaById()" style="html=1;verticalAlign=bottom;endArrow=block;edgeStyle=elbowEdgeStyle;elbow=vertical;curved=0;rounded=0;entryX=0.5;entryY=0.1;entryDx=0;entryDy=0;entryPerimeter=0;" edge="1" parent="1">
          <mxGeometry x="0.2" y="10" relative="1" as="geometry">
            <mxPoint x="1315" y="330" as="sourcePoint" />
            <Array as="points">
              <mxPoint x="1270" y="330" />
            </Array>
            <mxPoint x="1450" y="330" as="targetPoint" />
            <mxPoint x="-1" as="offset" />
          </mxGeometry>
        </mxCell>
        <mxCell id="53H3iFj_lqqziJ8YQ38P-39" value="findByCinemaId()" style="html=1;verticalAlign=bottom;endArrow=block;edgeStyle=elbowEdgeStyle;elbow=vertical;curved=0;rounded=0;" edge="1" parent="1">
          <mxGeometry x="0.2432" relative="1" as="geometry">
            <mxPoint x="1505" y="330" as="sourcePoint" />
            <Array as="points">
              <mxPoint x="1460" y="330" />
            </Array>
            <mxPoint x="1720" y="330" as="targetPoint" />
            <mxPoint as="offset" />
          </mxGeometry>
        </mxCell>
        <mxCell id="53H3iFj_lqqziJ8YQ38P-40" value="return cinema" style="html=1;verticalAlign=bottom;endArrow=open;dashed=1;endSize=8;edgeStyle=elbowEdgeStyle;elbow=vertical;curved=0;rounded=0;" edge="1" parent="1" source="53H3iFj_lqqziJ8YQ38P-9" target="53H3iFj_lqqziJ8YQ38P-7">
          <mxGeometry relative="1" as="geometry">
            <mxPoint x="910" y="370" as="targetPoint" />
            <Array as="points">
              <mxPoint x="1650" y="370" />
            </Array>
            <mxPoint x="1171" y="370" as="sourcePoint" />
          </mxGeometry>
        </mxCell>
        <mxCell id="53H3iFj_lqqziJ8YQ38P-41" value="affichage page d&#39;acceuil" style="html=1;verticalAlign=bottom;endArrow=open;dashed=1;endSize=8;edgeStyle=elbowEdgeStyle;elbow=vertical;curved=0;rounded=0;" edge="1" parent="1">
          <mxGeometry relative="1" as="geometry">
            <mxPoint x="50" y="460" as="targetPoint" />
            <Array as="points" />
            <mxPoint x="351" y="460" as="sourcePoint" />
          </mxGeometry>
        </mxCell>
        <mxCell id="53H3iFj_lqqziJ8YQ38P-42" value="rchange windows" style="html=1;verticalAlign=bottom;endArrow=open;dashed=1;endSize=8;edgeStyle=elbowEdgeStyle;elbow=horizontal;curved=0;rounded=0;" edge="1" parent="1">
          <mxGeometry relative="1" as="geometry">
            <mxPoint x="380" y="460" as="targetPoint" />
            <Array as="points" />
            <mxPoint x="541" y="460" as="sourcePoint" />
          </mxGeometry>
        </mxCell>
        <mxCell id="53H3iFj_lqqziJ8YQ38P-43" value="affichage formulaire update" style="html=1;verticalAlign=bottom;endArrow=open;dashed=1;endSize=8;edgeStyle=elbowEdgeStyle;elbow=vertical;curved=0;rounded=0;" edge="1" parent="1">
          <mxGeometry x="0.4286" relative="1" as="geometry">
            <mxPoint x="50" y="370" as="targetPoint" />
            <Array as="points" />
            <mxPoint x="541" y="370.24" as="sourcePoint" />
            <mxPoint x="1" as="offset" />
          </mxGeometry>
        </mxCell>
        <mxCell id="53H3iFj_lqqziJ8YQ38P-45" value="soumettre&amp;nbsp; nouvelles infos" style="html=1;verticalAlign=bottom;startArrow=oval;endArrow=block;startSize=8;edgeStyle=elbowEdgeStyle;elbow=vertical;curved=0;rounded=0;" edge="1" parent="1">
          <mxGeometry relative="1" as="geometry">
            <mxPoint x="50" y="400.12" as="sourcePoint" />
            <mxPoint x="540" y="410" as="targetPoint" />
            <Array as="points">
              <mxPoint x="420" y="410" />
            </Array>
          </mxGeometry>
        </mxCell>
        <mxCell id="53H3iFj_lqqziJ8YQ38P-48" value="return cinema" style="html=1;verticalAlign=bottom;endArrow=open;dashed=1;endSize=8;edgeStyle=elbowEdgeStyle;elbow=vertical;curved=0;rounded=0;" edge="1" parent="1">
          <mxGeometry relative="1" as="geometry">
            <mxPoint x="1280" y="370" as="targetPoint" />
            <Array as="points" />
            <mxPoint x="1431" y="370" as="sourcePoint" />
          </mxGeometry>
        </mxCell>
        <mxCell id="53H3iFj_lqqziJ8YQ38P-49" value="return cinema" style="html=1;verticalAlign=bottom;endArrow=open;dashed=1;endSize=8;edgeStyle=elbowEdgeStyle;elbow=vertical;curved=0;rounded=0;" edge="1" parent="1" source="53H3iFj_lqqziJ8YQ38P-5">
          <mxGeometry relative="1" as="geometry">
            <mxPoint x="560" y="370.43" as="targetPoint" />
            <Array as="points" />
            <mxPoint x="711" y="370.43" as="sourcePoint" />
          </mxGeometry>
        </mxCell>
        <mxCell id="53H3iFj_lqqziJ8YQ38P-50" value="save" style="html=1;verticalAlign=bottom;endArrow=block;edgeStyle=elbowEdgeStyle;elbow=vertical;curved=0;rounded=0;" edge="1" parent="1" target="53H3iFj_lqqziJ8YQ38P-5">
          <mxGeometry x="0.2432" relative="1" as="geometry">
            <mxPoint x="549.6633333333335" y="389.17" as="sourcePoint" />
            <Array as="points">
              <mxPoint x="1270.83" y="409.17" />
            </Array>
            <mxPoint x="1240" y="420" as="targetPoint" />
            <mxPoint as="offset" />
          </mxGeometry>
        </mxCell>
        <mxCell id="53H3iFj_lqqziJ8YQ38P-51" value="saveCinema()" style="html=1;verticalAlign=bottom;endArrow=block;edgeStyle=elbowEdgeStyle;elbow=vertical;curved=0;rounded=0;" edge="1" parent="1">
          <mxGeometry x="0.1795" relative="1" as="geometry">
            <mxPoint x="1335" y="410" as="sourcePoint" />
            <Array as="points">
              <mxPoint x="1290" y="410" />
            </Array>
            <mxPoint x="1440" y="410" as="targetPoint" />
            <mxPoint x="-1" as="offset" />
          </mxGeometry>
        </mxCell>
        <mxCell id="53H3iFj_lqqziJ8YQ38P-52" value="save + update bdd" style="html=1;verticalAlign=bottom;endArrow=block;edgeStyle=elbowEdgeStyle;elbow=vertical;curved=0;rounded=0;" edge="1" parent="1">
          <mxGeometry x="0.2432" relative="1" as="geometry">
            <mxPoint x="1505" y="410" as="sourcePoint" />
            <Array as="points">
              <mxPoint x="1460" y="410" />
            </Array>
            <mxPoint x="1720" y="410" as="targetPoint" />
            <mxPoint as="offset" />
          </mxGeometry>
        </mxCell>
        <mxCell id="53H3iFj_lqqziJ8YQ38P-58" value=":vue update cinema" style="shape=umlLifeline;perimeter=lifelinePerimeter;whiteSpace=wrap;html=1;container=0;dropTarget=0;collapsible=0;recursiveResize=0;outlineConnect=0;portConstraint=eastwest;newEdgeStyle={&quot;edgeStyle&quot;:&quot;elbowEdgeStyle&quot;,&quot;elbow&quot;:&quot;vertical&quot;,&quot;curved&quot;:0,&quot;rounded&quot;:0};fillColor=#ffe6cc;strokeColor=#d79b00;" vertex="1" parent="1">
          <mxGeometry x="500" y="40" width="100" height="1500" as="geometry" />
        </mxCell>
        <mxCell id="53H3iFj_lqqziJ8YQ38P-60" value="" style="html=1;points=[];perimeter=orthogonalPerimeter;outlineConnect=0;targetShapes=umlLifeline;portConstraint=eastwest;newEdgeStyle={&quot;edgeStyle&quot;:&quot;elbowEdgeStyle&quot;,&quot;elbow&quot;:&quot;vertical&quot;,&quot;curved&quot;:0,&quot;rounded&quot;:0};fillColor=#fff2cc;strokeColor=#d6b656;" vertex="1" parent="53H3iFj_lqqziJ8YQ38P-58">
          <mxGeometry x="45" y="290" width="10" height="130" as="geometry" />
        </mxCell>
        <mxCell id="53H3iFj_lqqziJ8YQ38P-61" value=":vue add cinema" style="shape=umlLifeline;perimeter=lifelinePerimeter;whiteSpace=wrap;html=1;container=0;dropTarget=0;collapsible=0;recursiveResize=0;outlineConnect=0;portConstraint=eastwest;newEdgeStyle={&quot;edgeStyle&quot;:&quot;elbowEdgeStyle&quot;,&quot;elbow&quot;:&quot;vertical&quot;,&quot;curved&quot;:0,&quot;rounded&quot;:0};fillColor=#ffe6cc;strokeColor=#d79b00;" vertex="1" parent="1">
          <mxGeometry x="680" y="40" width="100" height="1500" as="geometry" />
        </mxCell>
        <mxCell id="53H3iFj_lqqziJ8YQ38P-63" value="" style="html=1;points=[];perimeter=orthogonalPerimeter;outlineConnect=0;targetShapes=umlLifeline;portConstraint=eastwest;newEdgeStyle={&quot;edgeStyle&quot;:&quot;elbowEdgeStyle&quot;,&quot;elbow&quot;:&quot;vertical&quot;,&quot;curved&quot;:0,&quot;rounded&quot;:0};fillColor=#fff2cc;strokeColor=#d6b656;" vertex="1" parent="53H3iFj_lqqziJ8YQ38P-61">
          <mxGeometry x="45" y="550" width="10" height="130" as="geometry" />
        </mxCell>
        <mxCell id="53H3iFj_lqqziJ8YQ38P-64" value=":vue gestion city" style="shape=umlLifeline;perimeter=lifelinePerimeter;whiteSpace=wrap;html=1;container=0;dropTarget=0;collapsible=0;recursiveResize=0;outlineConnect=0;portConstraint=eastwest;newEdgeStyle={&quot;edgeStyle&quot;:&quot;elbowEdgeStyle&quot;,&quot;elbow&quot;:&quot;vertical&quot;,&quot;curved&quot;:0,&quot;rounded&quot;:0};fillColor=#ffe6cc;strokeColor=#d79b00;" vertex="1" parent="1">
          <mxGeometry x="1040" y="40" width="100" height="1500" as="geometry" />
        </mxCell>
        <mxCell id="53H3iFj_lqqziJ8YQ38P-65" value="" style="html=1;points=[];perimeter=orthogonalPerimeter;outlineConnect=0;targetShapes=umlLifeline;portConstraint=eastwest;newEdgeStyle={&quot;edgeStyle&quot;:&quot;elbowEdgeStyle&quot;,&quot;elbow&quot;:&quot;vertical&quot;,&quot;curved&quot;:0,&quot;rounded&quot;:0};fillColor=#fff2cc;strokeColor=#d6b656;" vertex="1" parent="53H3iFj_lqqziJ8YQ38P-64">
          <mxGeometry x="45" y="1040" width="10" height="240" as="geometry" />
        </mxCell>
        <mxCell id="53H3iFj_lqqziJ8YQ38P-67" value="recup infos" style="html=1;verticalAlign=bottom;endArrow=block;edgeStyle=elbowEdgeStyle;elbow=vertical;curved=0;rounded=0;" edge="1" parent="1" target="53H3iFj_lqqziJ8YQ38P-5">
          <mxGeometry x="0.2432" relative="1" as="geometry">
            <mxPoint x="560" y="330.67" as="sourcePoint" />
            <Array as="points" />
            <mxPoint x="727.5" y="330.24" as="targetPoint" />
            <mxPoint as="offset" />
          </mxGeometry>
        </mxCell>
        <mxCell id="53H3iFj_lqqziJ8YQ38P-68" value="add cinema" style="html=1;verticalAlign=bottom;startArrow=oval;endArrow=block;startSize=8;edgeStyle=elbowEdgeStyle;elbow=vertical;curved=0;rounded=0;" edge="1" parent="1">
          <mxGeometry relative="1" as="geometry">
            <mxPoint x="50" y="540" as="sourcePoint" />
            <mxPoint x="360" y="550" as="targetPoint" />
            <Array as="points">
              <mxPoint x="420" y="549.88" />
            </Array>
          </mxGeometry>
        </mxCell>
        <mxCell id="53H3iFj_lqqziJ8YQ38P-69" value="change window" style="html=1;verticalAlign=bottom;startArrow=oval;endArrow=block;startSize=8;edgeStyle=elbowEdgeStyle;elbow=vertical;curved=0;rounded=0;" edge="1" parent="1" source="53H3iFj_lqqziJ8YQ38P-20">
          <mxGeometry relative="1" as="geometry">
            <mxPoint x="400" y="580" as="sourcePoint" />
            <mxPoint x="720" y="590" as="targetPoint" />
            <Array as="points">
              <mxPoint x="770" y="589.88" />
            </Array>
          </mxGeometry>
        </mxCell>
        <mxCell id="aM9ryv3xv72pqoxQDRHE-6" value="" style="html=1;points=[];perimeter=orthogonalPerimeter;outlineConnect=0;targetShapes=umlLifeline;portConstraint=eastwest;newEdgeStyle={&quot;edgeStyle&quot;:&quot;elbowEdgeStyle&quot;,&quot;elbow&quot;:&quot;vertical&quot;,&quot;curved&quot;:0,&quot;rounded&quot;:0};fillColor=#fff2cc;strokeColor=#d6b656;" parent="1" vertex="1">
          <mxGeometry x="905" y="840" width="10" height="120" as="geometry" />
        </mxCell>
        <mxCell id="53H3iFj_lqqziJ8YQ38P-70" value="affichage formulaire add cinema" style="html=1;verticalAlign=bottom;endArrow=open;dashed=1;endSize=8;edgeStyle=elbowEdgeStyle;elbow=vertical;curved=0;rounded=0;" edge="1" parent="1">
          <mxGeometry x="0.4286" relative="1" as="geometry">
            <mxPoint x="50" y="630" as="targetPoint" />
            <Array as="points" />
            <mxPoint x="721" y="640.24" as="sourcePoint" />
            <mxPoint x="1" as="offset" />
          </mxGeometry>
        </mxCell>
        <mxCell id="53H3iFj_lqqziJ8YQ38P-71" value="soumettre&amp;nbsp; infos" style="html=1;verticalAlign=bottom;startArrow=oval;endArrow=block;startSize=8;edgeStyle=elbowEdgeStyle;elbow=vertical;curved=0;rounded=0;" edge="1" parent="1" target="53H3iFj_lqqziJ8YQ38P-61">
          <mxGeometry relative="1" as="geometry">
            <mxPoint x="50" y="670" as="sourcePoint" />
            <mxPoint x="540" y="679.88" as="targetPoint" />
            <Array as="points">
              <mxPoint x="420" y="679.88" />
            </Array>
          </mxGeometry>
        </mxCell>
        <mxCell id="53H3iFj_lqqziJ8YQ38P-72" value="save" style="html=1;verticalAlign=bottom;endArrow=block;edgeStyle=elbowEdgeStyle;elbow=vertical;curved=0;rounded=0;" edge="1" parent="1" target="53H3iFj_lqqziJ8YQ38P-5">
          <mxGeometry x="0.2432" relative="1" as="geometry">
            <mxPoint x="740" y="670" as="sourcePoint" />
            <Array as="points">
              <mxPoint x="930" y="680" />
            </Array>
            <mxPoint x="1250.34" y="669.83" as="targetPoint" />
            <mxPoint as="offset" />
          </mxGeometry>
        </mxCell>
        <mxCell id="53H3iFj_lqqziJ8YQ38P-73" value="saveCinema()" style="html=1;verticalAlign=bottom;endArrow=block;edgeStyle=elbowEdgeStyle;elbow=vertical;curved=0;rounded=0;" edge="1" parent="1">
          <mxGeometry x="0.1795" relative="1" as="geometry">
            <mxPoint x="1335" y="680" as="sourcePoint" />
            <Array as="points">
              <mxPoint x="1290" y="680" />
            </Array>
            <mxPoint x="1440" y="680" as="targetPoint" />
            <mxPoint x="-1" as="offset" />
          </mxGeometry>
        </mxCell>
        <mxCell id="53H3iFj_lqqziJ8YQ38P-74" value="save + update bdd" style="html=1;verticalAlign=bottom;endArrow=block;edgeStyle=elbowEdgeStyle;elbow=vertical;curved=0;rounded=0;" edge="1" parent="1">
          <mxGeometry x="0.2432" relative="1" as="geometry">
            <mxPoint x="1505" y="680" as="sourcePoint" />
            <Array as="points">
              <mxPoint x="1460" y="680" />
            </Array>
            <mxPoint x="1720" y="680" as="targetPoint" />
            <mxPoint as="offset" />
          </mxGeometry>
        </mxCell>
        <mxCell id="53H3iFj_lqqziJ8YQ38P-75" value="" style="html=1;points=[];perimeter=orthogonalPerimeter;outlineConnect=0;targetShapes=umlLifeline;portConstraint=eastwest;newEdgeStyle={&quot;edgeStyle&quot;:&quot;elbowEdgeStyle&quot;,&quot;elbow&quot;:&quot;vertical&quot;,&quot;curved&quot;:0,&quot;rounded&quot;:0};fillColor=#fff2cc;strokeColor=#d6b656;" vertex="1" parent="1">
          <mxGeometry x="365" y="720" width="10" height="120" as="geometry" />
        </mxCell>
        <mxCell id="53H3iFj_lqqziJ8YQ38P-76" value="rchange windows" style="html=1;verticalAlign=bottom;endArrow=open;dashed=1;endSize=8;edgeStyle=elbowEdgeStyle;elbow=horizontal;curved=0;rounded=0;" edge="1" parent="1">
          <mxGeometry relative="1" as="geometry">
            <mxPoint x="390" y="720" as="targetPoint" />
            <Array as="points" />
            <mxPoint x="731" y="720" as="sourcePoint" />
          </mxGeometry>
        </mxCell>
        <mxCell id="53H3iFj_lqqziJ8YQ38P-77" value="affichage page d&#39;acceuil" style="html=1;verticalAlign=bottom;endArrow=open;dashed=1;endSize=8;edgeStyle=elbowEdgeStyle;elbow=vertical;curved=0;rounded=0;" edge="1" parent="1">
          <mxGeometry relative="1" as="geometry">
            <mxPoint x="50" y="720" as="targetPoint" />
            <Array as="points" />
            <mxPoint x="351" y="720" as="sourcePoint" />
          </mxGeometry>
        </mxCell>
        <mxCell id="53H3iFj_lqqziJ8YQ38P-78" value="add film" style="html=1;verticalAlign=bottom;startArrow=oval;endArrow=block;startSize=8;edgeStyle=elbowEdgeStyle;elbow=vertical;curved=0;rounded=0;" edge="1" parent="1">
          <mxGeometry relative="1" as="geometry">
            <mxPoint x="55" y="800" as="sourcePoint" />
            <mxPoint x="365" y="810" as="targetPoint" />
            <Array as="points">
              <mxPoint x="425" y="809.88" />
            </Array>
          </mxGeometry>
        </mxCell>
        <mxCell id="53H3iFj_lqqziJ8YQ38P-79" value="change window" style="html=1;verticalAlign=bottom;startArrow=oval;endArrow=block;startSize=8;edgeStyle=elbowEdgeStyle;elbow=vertical;curved=0;rounded=0;" edge="1" parent="1" target="aM9ryv3xv72pqoxQDRHE-5">
          <mxGeometry relative="1" as="geometry">
            <mxPoint x="374.5" y="838.45" as="sourcePoint" />
            <mxPoint x="725.5" y="838.45" as="targetPoint" />
            <Array as="points">
              <mxPoint x="775.5" y="838.3299999999999" />
            </Array>
          </mxGeometry>
        </mxCell>
        <mxCell id="53H3iFj_lqqziJ8YQ38P-80" value="affichage formulaire add film" style="html=1;verticalAlign=bottom;endArrow=open;dashed=1;endSize=8;edgeStyle=elbowEdgeStyle;elbow=vertical;curved=0;rounded=0;" edge="1" parent="1">
          <mxGeometry x="0.4286" relative="1" as="geometry">
            <mxPoint x="50" y="870" as="targetPoint" />
            <Array as="points" />
            <mxPoint x="905" y="880.24" as="sourcePoint" />
            <mxPoint x="1" as="offset" />
          </mxGeometry>
        </mxCell>
        <mxCell id="53H3iFj_lqqziJ8YQ38P-81" value="soumettre&amp;nbsp; infos" style="html=1;verticalAlign=bottom;startArrow=oval;endArrow=block;startSize=8;edgeStyle=elbowEdgeStyle;elbow=vertical;curved=0;rounded=0;" edge="1" parent="1" target="aM9ryv3xv72pqoxQDRHE-5">
          <mxGeometry relative="1" as="geometry">
            <mxPoint x="50" y="910" as="sourcePoint" />
            <mxPoint x="730" y="920" as="targetPoint" />
            <Array as="points">
              <mxPoint x="420" y="919.88" />
            </Array>
          </mxGeometry>
        </mxCell>
        <mxCell id="53H3iFj_lqqziJ8YQ38P-82" value="save" style="html=1;verticalAlign=bottom;endArrow=block;edgeStyle=elbowEdgeStyle;elbow=vertical;curved=0;rounded=0;" edge="1" parent="1" source="aM9ryv3xv72pqoxQDRHE-5">
          <mxGeometry x="0.2432" relative="1" as="geometry">
            <mxPoint x="740" y="910" as="sourcePoint" />
            <Array as="points">
              <mxPoint x="930" y="920" />
            </Array>
            <mxPoint x="1270" y="920" as="targetPoint" />
            <mxPoint as="offset" />
          </mxGeometry>
        </mxCell>
        <mxCell id="53H3iFj_lqqziJ8YQ38P-83" value="saveMovie()" style="html=1;verticalAlign=bottom;endArrow=block;edgeStyle=elbowEdgeStyle;elbow=vertical;curved=0;rounded=0;" edge="1" parent="1">
          <mxGeometry x="0.1795" relative="1" as="geometry">
            <mxPoint x="1335" y="920" as="sourcePoint" />
            <Array as="points">
              <mxPoint x="1290" y="920" />
            </Array>
            <mxPoint x="1440" y="920" as="targetPoint" />
            <mxPoint x="-1" as="offset" />
          </mxGeometry>
        </mxCell>
        <mxCell id="53H3iFj_lqqziJ8YQ38P-84" value="save + update bdd" style="html=1;verticalAlign=bottom;endArrow=block;edgeStyle=elbowEdgeStyle;elbow=vertical;curved=0;rounded=0;" edge="1" parent="1">
          <mxGeometry x="0.2432" relative="1" as="geometry">
            <mxPoint x="1505" y="920" as="sourcePoint" />
            <Array as="points">
              <mxPoint x="1460" y="920" />
            </Array>
            <mxPoint x="1720" y="920" as="targetPoint" />
            <mxPoint as="offset" />
          </mxGeometry>
        </mxCell>
        <mxCell id="53H3iFj_lqqziJ8YQ38P-87" value="rchange windows" style="html=1;verticalAlign=bottom;endArrow=open;dashed=1;endSize=8;edgeStyle=elbowEdgeStyle;elbow=horizontal;curved=0;rounded=0;" edge="1" parent="1">
          <mxGeometry relative="1" as="geometry">
            <mxPoint x="380" y="958" as="targetPoint" />
            <Array as="points" />
            <mxPoint x="905" y="958" as="sourcePoint" />
          </mxGeometry>
        </mxCell>
        <mxCell id="53H3iFj_lqqziJ8YQ38P-88" value="affichage page d&#39;acceuil" style="html=1;verticalAlign=bottom;endArrow=open;dashed=1;endSize=8;edgeStyle=elbowEdgeStyle;elbow=vertical;curved=0;rounded=0;" edge="1" parent="1">
          <mxGeometry relative="1" as="geometry">
            <mxPoint x="50" y="958" as="targetPoint" />
            <Array as="points" />
            <mxPoint x="351" y="958" as="sourcePoint" />
          </mxGeometry>
        </mxCell>
        <mxCell id="53H3iFj_lqqziJ8YQ38P-89" value="gestion villes" style="html=1;verticalAlign=bottom;startArrow=oval;endArrow=block;startSize=8;edgeStyle=elbowEdgeStyle;elbow=vertical;curved=0;rounded=0;" edge="1" parent="1">
          <mxGeometry relative="1" as="geometry">
            <mxPoint x="50" y="1030" as="sourcePoint" />
            <mxPoint x="360" y="1040" as="targetPoint" />
            <Array as="points">
              <mxPoint x="420" y="1039.88" />
            </Array>
          </mxGeometry>
        </mxCell>
        <mxCell id="53H3iFj_lqqziJ8YQ38P-90" value="change window" style="html=1;verticalAlign=bottom;startArrow=oval;endArrow=block;startSize=8;edgeStyle=elbowEdgeStyle;elbow=vertical;curved=0;rounded=0;" edge="1" parent="1" target="53H3iFj_lqqziJ8YQ38P-64">
          <mxGeometry relative="1" as="geometry">
            <mxPoint x="384.5" y="1080.45" as="sourcePoint" />
            <mxPoint x="920" y="1080" as="targetPoint" />
            <Array as="points">
              <mxPoint x="785.5" y="1080.33" />
            </Array>
          </mxGeometry>
        </mxCell>
        <mxCell id="53H3iFj_lqqziJ8YQ38P-94" value="affichage page gestion villes" style="html=1;verticalAlign=bottom;endArrow=open;dashed=1;endSize=8;edgeStyle=elbowEdgeStyle;elbow=vertical;curved=0;rounded=0;" edge="1" parent="1">
          <mxGeometry x="0.4286" relative="1" as="geometry">
            <mxPoint x="50" y="1110" as="targetPoint" />
            <Array as="points" />
            <mxPoint x="1085" y="1120.24" as="sourcePoint" />
            <mxPoint x="1" as="offset" />
          </mxGeometry>
        </mxCell>
        <mxCell id="53H3iFj_lqqziJ8YQ38P-95" value="supprimer ville" style="html=1;verticalAlign=bottom;startArrow=oval;endArrow=block;startSize=8;edgeStyle=elbowEdgeStyle;elbow=vertical;curved=0;rounded=0;" edge="1" parent="1">
          <mxGeometry relative="1" as="geometry">
            <mxPoint x="50" y="1170.12" as="sourcePoint" />
            <mxPoint x="1089.5" y="1180" as="targetPoint" />
            <Array as="points">
              <mxPoint x="420" y="1180" />
            </Array>
          </mxGeometry>
        </mxCell>
        <mxCell id="53H3iFj_lqqziJ8YQ38P-96" value="delete" style="html=1;verticalAlign=bottom;endArrow=block;edgeStyle=elbowEdgeStyle;elbow=vertical;curved=0;rounded=0;" edge="1" parent="1">
          <mxGeometry x="0.2432" relative="1" as="geometry">
            <mxPoint x="1100" y="1180" as="sourcePoint" />
            <Array as="points">
              <mxPoint x="1121" y="1180" />
            </Array>
            <mxPoint x="1260" y="1190" as="targetPoint" />
            <mxPoint as="offset" />
          </mxGeometry>
        </mxCell>
        <mxCell id="53H3iFj_lqqziJ8YQ38P-97" value="deleteCity()" style="html=1;verticalAlign=bottom;endArrow=block;edgeStyle=elbowEdgeStyle;elbow=vertical;curved=0;rounded=0;" edge="1" parent="1">
          <mxGeometry x="0.1795" relative="1" as="geometry">
            <mxPoint x="1335" y="1180" as="sourcePoint" />
            <Array as="points">
              <mxPoint x="1290" y="1180" />
            </Array>
            <mxPoint x="1440" y="1180" as="targetPoint" />
            <mxPoint x="-1" as="offset" />
          </mxGeometry>
        </mxCell>
        <mxCell id="53H3iFj_lqqziJ8YQ38P-98" value="deleteById + update bdd" style="html=1;verticalAlign=bottom;endArrow=block;edgeStyle=elbowEdgeStyle;elbow=vertical;curved=0;rounded=0;" edge="1" parent="1" source="53H3iFj_lqqziJ8YQ38P-99">
          <mxGeometry x="0.4563" relative="1" as="geometry">
            <mxPoint x="1505" y="1180" as="sourcePoint" />
            <Array as="points">
              <mxPoint x="1460" y="1180" />
            </Array>
            <mxPoint x="1720" y="1180" as="targetPoint" />
            <mxPoint as="offset" />
          </mxGeometry>
        </mxCell>
        <mxCell id="53H3iFj_lqqziJ8YQ38P-100" value="" style="html=1;verticalAlign=bottom;endArrow=block;edgeStyle=elbowEdgeStyle;elbow=vertical;curved=0;rounded=0;" edge="1" parent="1" target="53H3iFj_lqqziJ8YQ38P-99">
          <mxGeometry x="0.2432" relative="1" as="geometry">
            <mxPoint x="1505" y="1180" as="sourcePoint" />
            <Array as="points" />
            <mxPoint x="1720" y="1180" as="targetPoint" />
            <mxPoint as="offset" />
          </mxGeometry>
        </mxCell>
        <mxCell id="53H3iFj_lqqziJ8YQ38P-99" value="" style="html=1;points=[];perimeter=orthogonalPerimeter;outlineConnect=0;targetShapes=umlLifeline;portConstraint=eastwest;newEdgeStyle={&quot;edgeStyle&quot;:&quot;elbowEdgeStyle&quot;,&quot;elbow&quot;:&quot;vertical&quot;,&quot;curved&quot;:0,&quot;rounded&quot;:0};fillColor=#f5f5f5;fontColor=#333333;strokeColor=#666666;" vertex="1" parent="1">
          <mxGeometry x="1715" y="1180" width="10" height="20" as="geometry" />
        </mxCell>
        <mxCell id="53H3iFj_lqqziJ8YQ38P-102" value="add city" style="html=1;verticalAlign=bottom;startArrow=oval;endArrow=block;startSize=8;edgeStyle=elbowEdgeStyle;elbow=vertical;curved=0;rounded=0;" edge="1" parent="1">
          <mxGeometry relative="1" as="geometry">
            <mxPoint x="50" y="1250" as="sourcePoint" />
            <mxPoint x="1089.5" y="1259.88" as="targetPoint" />
            <Array as="points">
              <mxPoint x="420" y="1259.88" />
            </Array>
          </mxGeometry>
        </mxCell>
        <mxCell id="53H3iFj_lqqziJ8YQ38P-103" value="save" style="html=1;verticalAlign=bottom;endArrow=block;edgeStyle=elbowEdgeStyle;elbow=vertical;curved=0;rounded=0;" edge="1" parent="1" target="53H3iFj_lqqziJ8YQ38P-5">
          <mxGeometry x="0.2432" relative="1" as="geometry">
            <mxPoint x="1100" y="1260" as="sourcePoint" />
            <Array as="points">
              <mxPoint x="1121" y="1260" />
            </Array>
            <mxPoint x="1461" y="1260" as="targetPoint" />
            <mxPoint as="offset" />
          </mxGeometry>
        </mxCell>
        <mxCell id="53H3iFj_lqqziJ8YQ38P-104" value="saveCity()" style="html=1;verticalAlign=bottom;endArrow=block;edgeStyle=elbowEdgeStyle;elbow=vertical;curved=0;rounded=0;" edge="1" parent="1">
          <mxGeometry x="0.1795" relative="1" as="geometry">
            <mxPoint x="1325" y="1260" as="sourcePoint" />
            <Array as="points">
              <mxPoint x="1280" y="1260" />
            </Array>
            <mxPoint x="1430" y="1260" as="targetPoint" />
            <mxPoint x="-1" as="offset" />
          </mxGeometry>
        </mxCell>
        <mxCell id="53H3iFj_lqqziJ8YQ38P-105" value="save + update bdd" style="html=1;verticalAlign=bottom;endArrow=block;edgeStyle=elbowEdgeStyle;elbow=vertical;curved=0;rounded=0;" edge="1" parent="1" source="53H3iFj_lqqziJ8YQ38P-101">
          <mxGeometry x="0.2432" relative="1" as="geometry">
            <mxPoint x="1500" y="1260" as="sourcePoint" />
            <Array as="points">
              <mxPoint x="1455" y="1260" />
            </Array>
            <mxPoint x="1715" y="1260" as="targetPoint" />
            <mxPoint as="offset" />
          </mxGeometry>
        </mxCell>
        <mxCell id="53H3iFj_lqqziJ8YQ38P-106" value="" style="html=1;verticalAlign=bottom;endArrow=block;edgeStyle=elbowEdgeStyle;elbow=vertical;curved=0;rounded=0;" edge="1" parent="1" target="53H3iFj_lqqziJ8YQ38P-101">
          <mxGeometry x="0.2432" relative="1" as="geometry">
            <mxPoint x="1500" y="1260" as="sourcePoint" />
            <Array as="points" />
            <mxPoint x="1715" y="1260" as="targetPoint" />
            <mxPoint as="offset" />
          </mxGeometry>
        </mxCell>
        <mxCell id="53H3iFj_lqqziJ8YQ38P-101" value="" style="html=1;points=[];perimeter=orthogonalPerimeter;outlineConnect=0;targetShapes=umlLifeline;portConstraint=eastwest;newEdgeStyle={&quot;edgeStyle&quot;:&quot;elbowEdgeStyle&quot;,&quot;elbow&quot;:&quot;vertical&quot;,&quot;curved&quot;:0,&quot;rounded&quot;:0};fillColor=#f5f5f5;fontColor=#333333;strokeColor=#666666;" vertex="1" parent="1">
          <mxGeometry x="1715" y="1260" width="10" height="20" as="geometry" />
        </mxCell>
        <mxCell id="53H3iFj_lqqziJ8YQ38P-112" value="rchange windows" style="html=1;verticalAlign=bottom;endArrow=open;dashed=1;endSize=8;edgeStyle=elbowEdgeStyle;elbow=horizontal;curved=0;rounded=0;" edge="1" parent="1">
          <mxGeometry relative="1" as="geometry">
            <mxPoint x="380" y="1320" as="targetPoint" />
            <Array as="points" />
            <mxPoint x="1075" y="1320" as="sourcePoint" />
          </mxGeometry>
        </mxCell>
        <mxCell id="53H3iFj_lqqziJ8YQ38P-113" value="affichage page d&#39;acceuil" style="html=1;verticalAlign=bottom;endArrow=open;dashed=1;endSize=8;edgeStyle=elbowEdgeStyle;elbow=vertical;curved=0;rounded=0;" edge="1" parent="1">
          <mxGeometry relative="1" as="geometry">
            <mxPoint x="50" y="1320" as="targetPoint" />
            <Array as="points" />
            <mxPoint x="351" y="1320" as="sourcePoint" />
          </mxGeometry>
        </mxCell>
      </root>
    </mxGraphModel>
  </diagram>
</mxfile>
